<?xml version="1.0" encoding="utf-8"?>
<!-- Generator: Adobe Illustrator 23.0.2, SVG Export Plug-In . SVG Version: 6.00 Build 0)  -->
<svg version="1.1" xmlns="http://www.w3.org/2000/svg" xmlns:xlink="http://www.w3.org/1999/xlink" x="0px" y="0px"
	 viewBox="0 0 864 352" style="enable-background:new 0 0 864 352;" xml:space="preserve">
<style type="text/css">
	.st0{fill:#222222;}
	.st1{fill:#606060;}
	.st2{opacity:0.3;}
	.st3{fill:none;stroke:#FFFFFF;stroke-miterlimit:10;}
	.st4{fill:#333333;}
	.st5{fill:#348EE8;stroke:#348EE8;stroke-width:0.9528;stroke-miterlimit:10;}
	.st6{fill:#D73100;}
	.st7{fill:#FFC800;}
	.st8{fill:#FFFFFF;}
	.st9{fill:#348EE8;stroke:#348EE8;stroke-miterlimit:10;}
	.st10{fill:none;}
	.st11{fill:#348EE8;stroke:#348EE8;stroke-width:1.3551;stroke-miterlimit:10;}
</style>
<g id="BG">
	<g>
		<rect x="-2460" class="st0" width="800" height="600"/>
	</g>
	<g>
		<rect x="-820" width="800" height="600"/>
	</g>
</g>
<g id="Layer_2">
	<path d="M-2926.27-50.48h-22.02c-2.2,0-3.99,1.79-3.99,3.99v22.02c0,2.2,1.79,3.99,3.99,3.99h22.02c2.2,0,3.99-1.79,3.99-3.99
		v-22.02C-2922.28-48.7-2924.07-50.48-2926.27-50.48z"/>
	<g>
		<path d="M-2692.53-81.78c-1.56,0-2.83-1.27-2.83-2.83V-93c0-1.56,1.27-2.83,2.83-2.83h24.37c3.87,0,7.02,3.15,7.02,7.02
			s-3.15,7.02-7.02,7.02H-2692.53z"/>
		<path class="st1" d="M-2668.16-95.58c3.74,0,6.77,3.03,6.77,6.77v0c0,3.74-3.03,6.77-6.77,6.77h-24.37
			c-1.42,0-2.58-1.15-2.58-2.58V-93c0-1.42,1.15-2.58,2.58-2.58H-2668.16 M-2668.16-96.08h-24.37c-1.7,0-3.08,1.38-3.08,3.08v8.39
			c0,1.7,1.38,3.08,3.08,3.08h24.37c4.01,0,7.27-3.26,7.27-7.27S-2664.15-96.08-2668.16-96.08L-2668.16-96.08z"/>
	</g>
	<g>
		<path d="M-2668.22-81.38c-1.94,0-3.77-0.76-5.14-2.13l-17.23-17.23c-0.58-0.58-0.9-1.35-0.9-2.18s0.32-1.59,0.9-2.18l5.93-5.93
			c0.58-0.58,1.35-0.9,2.18-0.9c0.82,0,1.59,0.32,2.17,0.9l17.23,17.23c1.37,1.37,2.13,3.2,2.13,5.14s-0.76,3.77-2.13,5.14
			C-2664.45-82.14-2666.28-81.38-2668.22-81.38z"/>
		<path class="st1" d="M-2682.49-111.43c0.66,0,1.32,0.25,1.82,0.75l17.23,17.23c2.65,2.65,2.65,6.93,0,9.58v0
			c-1.32,1.32-3.06,1.98-4.79,1.98c-1.73,0-3.47-0.66-4.79-1.98l-17.23-17.23c-1.01-1.01-1.01-2.64,0-3.64l5.93-5.93
			C-2683.8-111.18-2683.15-111.43-2682.49-111.43 M-2682.49-112.43c-0.96,0-1.85,0.37-2.53,1.05l-5.93,5.93
			c-0.68,0.68-1.05,1.57-1.05,2.53c0,0.96,0.37,1.85,1.05,2.53l17.23,17.23c1.47,1.47,3.42,2.28,5.5,2.28c2.08,0,4.03-0.81,5.5-2.28
			c1.47-1.47,2.28-3.42,2.28-5.5c0-2.08-0.81-4.03-2.28-5.5l-17.23-17.23C-2680.63-112.06-2681.53-112.43-2682.49-112.43
			L-2682.49-112.43z"/>
	</g>
	<text transform="matrix(1 0 0 1 -2955.3789 -240.9275)" style="font-family:'FatFrank-Heavy'; font-size:26.886px;">declutter</text>
	<text transform="matrix(1 0 0 1 -2949.439 -170.8124)"><tspan x="0" y="0" style="font-family:'FatFrank-Heavy'; font-size:26.886px;">de</tspan><tspan x="0" y="22.26" style="font-family:'FatFrank-Heavy'; font-size:26.886px;">clutter</tspan></text>
	<text transform="matrix(1 0 0 1 -2917.5371 -104.4543)"><tspan x="0" y="0" style="font-family:'FatFrank-Heavy'; font-size:19.4224px;">de</tspan><tspan x="0" y="16.08" style="font-family:'FatFrank-Heavy'; font-size:19.4224px;">clutter</tspan></text>
	<text transform="matrix(1 0 0 1 -2655.5137 -100.331)"><tspan x="0" y="0" style="font-family:'FatFrank-Heavy'; font-size:22.3027px;">de</tspan><tspan x="0" y="18.47" style="font-family:'FatFrank-Heavy'; font-size:22.3027px;">clutter</tspan></text>
	<text transform="matrix(1 0 0 1 -3155.0742 -36.918)"><tspan x="0" y="0" style="font-family:'FatFrank-Heavy'; font-size:23.0251px;">de</tspan><tspan x="0" y="19.07" style="font-family:'FatFrank-Heavy'; font-size:23.0251px;">clutter</tspan></text>
	<g>
		<text transform="matrix(1 0 0 1 -3162.2227 -98.2851)"><tspan x="0" y="0" style="font-family:'LucidaConsole'; font-size:21.8185px; letter-spacing:-1;">de</tspan><tspan x="22.8" y="0" style="font-family:'LucidaConsole'; font-size:21.8185px; letter-spacing:-3;">c</tspan><tspan x="32.46" y="0" style="font-family:'LucidaConsole'; font-size:21.8185px; letter-spacing:-1;">lutter</tspan></text>
	</g>
	<circle cx="-2902.31" cy="-179.24" r="6"/>
	<path d="M-2887.4-184.21l-4.59,7.95c-0.77,1.33,0.19,3,1.73,3h9.18c1.54,0,2.5-1.67,1.73-3l-4.59-7.95
		C-2884.7-185.55-2886.63-185.55-2887.4-184.21z"/>
	<path d="M-2865.02-185.24h-8c-1.1,0-2,0.9-2,2v8c0,1.1,0.9,2,2,2h8c1.1,0,2-0.9,2-2v-8
		C-2863.02-184.34-2863.92-185.24-2865.02-185.24z"/>
	<circle cx="-2912.87" cy="-230.24" r="6"/>
	<path d="M-2897.96-235.22l-4.59,7.95c-0.77,1.33,0.19,3,1.73,3h9.18c1.54,0,2.5-1.67,1.73-3l-4.59-7.95
		C-2895.27-236.55-2897.19-236.55-2897.96-235.22z"/>
	<path d="M-2875.59-236.24h-8c-1.1,0-2,0.9-2,2v8c0,1.1,0.9,2,2,2h8c1.1,0,2-0.9,2-2v-8
		C-2873.59-235.35-2874.48-236.24-2875.59-236.24z"/>
	<circle cx="-2927.66" cy="-110.02" r="6"/>
	<path d="M-2946.04-98.95l-4.59,7.95c-0.77,1.33,0.19,3,1.73,3h9.18c1.54,0,2.5-1.67,1.73-3l-4.59-7.95
		C-2943.34-100.29-2945.27-100.29-2946.04-98.95z"/>
	<path d="M-2923.66-99.98h-8c-1.1,0-2,0.9-2,2v8c0,1.1,0.9,2,2,2h8c1.1,0,2-0.9,2-2v-8C-2921.66-99.08-2922.56-99.98-2923.66-99.98z
		"/>
	<g>
		<text transform="matrix(1 0 0 1 -2917.8987 -25.9434)" style="font-family:'FatFrank-Heavy'; font-size:26.886px;">declutter</text>
	</g>
	<g>
		<text transform="matrix(1 0 0 1 -2658.3635 -18.889)" style="font-family:'FatFrank-Heavy'; font-size:35.6728px;">declutter</text>
	</g>
	<circle class="st1" cx="-2930.71" cy="-42.07" r="3.91"/>
	<path class="st1" d="M-2944.82-33.29l-3.84,6.65c-0.38,0.67,0.1,1.5,0.87,1.5h7.68c0.77,0,1.25-0.83,0.87-1.5l-3.84-6.65
		C-2943.47-33.96-2944.43-33.96-2944.82-33.29z"/>
	<path class="st1" d="M-2927.66-33.35h-6.09c-0.55,0-1,0.45-1,1v6.09c0,0.55,0.45,1,1,1h6.09c0.55,0,1-0.45,1-1v-6.09
		C-2926.66-32.9-2927.11-33.35-2927.66-33.35z"/>
	<rect x="-2875.06" y="-255.73" width="3.18" height="3.41"/>
	<g>
		<rect x="-3195.02" y="-103.79" width="17.07" height="5.01"/>
	</g>
	<path class="st1" d="M-3191.74-102.54h-1.5c-0.28,0-0.5,0.22-0.5,0.5v1.5c0,0.28,0.22,0.5,0.5,0.5h1.5c0.28,0,0.5-0.22,0.5-0.5
		v-1.5C-3191.24-102.31-3191.46-102.54-3191.74-102.54z"/>
	<g>
		<polygon points="-3195.05,-98.14 -3177.98,-98.14 -3176.25,-96.34 -3193.32,-96.34 		"/>
	</g>
	<g>
		<rect x="-3195.02" y="-111.89" width="24.16" height="5.01"/>
	</g>
	<path class="st1" d="M-3192.92-110.44l-1.08,1.87c-0.19,0.33,0.05,0.75,0.43,0.75h2.16c0.38,0,0.63-0.42,0.43-0.75l-1.08-1.87
		C-3192.25-110.78-3192.73-110.78-3192.92-110.44z"/>
	<g>
		<polygon points="-3195.05,-106.23 -3170.89,-106.23 -3169.16,-104.44 -3193.32,-104.44 		"/>
	</g>
	<g>
		<rect x="-3195.02" y="-119.99" width="8.55" height="5.01"/>
	</g>
	<g>
		<polygon points="-3195.05,-114.33 -3186.5,-114.33 -3184.76,-112.53 -3193.32,-112.53 		"/>
	</g>
	<circle class="st1" cx="-3192.49" cy="-117.48" r="1.25"/>
	<g class="st2">
		
			<rect x="-3145.9" y="-177.9" transform="matrix(-2.815288e-10 1 -1 -2.815288e-10 -3309.9502 2967.4373)" width="14.42" height="13.28"/>
		<path class="st1" d="M-3142-174.07v5.62c0,0.28,0.22,0.5,0.5,0.5h5.62c0.28,0,0.5-0.22,0.5-0.5v-5.62c0-0.28-0.22-0.5-0.5-0.5
			h-5.62C-3141.78-174.57-3142-174.34-3142-174.07z"/>
		<polygon points="-3130.35,-163.98 -3130.35,-178.4 -3125.59,-182.99 -3125.59,-168.57 		"/>
		
			<rect x="-3167.48" y="-178.02" transform="matrix(-3.916451e-10 1 -1 -3.916451e-10 -3331.5229 2988.7639)" width="14.67" height="13.28"/>
		<path class="st1" d="M-3161.1-174.68l-3.25,5.63c-0.42,0.73,0.11,1.65,0.95,1.65h6.5c0.85,0,1.38-0.92,0.95-1.65l-3.25-5.63
			C-3159.71-175.59-3160.57-175.59-3161.1-174.68z"/>
		<polygon points="-3151.8,-163.98 -3151.8,-178.64 -3147.04,-183.24 -3147.04,-168.57 		"/>
		
			<rect x="-3188.63" y="-177.72" transform="matrix(-1.450921e-10 1 -1 -1.450921e-10 -3352.6724 3010.5142)" width="14.07" height="13.28"/>
		<polygon points="-3173.25,-163.98 -3173.25,-178.04 -3168.49,-182.64 -3168.49,-168.57 		"/>
		<circle class="st1" cx="-3181.59" cy="-171.08" r="3.32"/>
	</g>
	<g class="st2">
		<g>
			<rect x="-3153.83" y="-237.74" width="20" height="20"/>
		</g>
		<g>
			<rect x="-3174.83" y="-237.74" width="20" height="20"/>
		</g>
		<g>
			<rect x="-3164.83" y="-258.74" width="20" height="20"/>
		</g>
		<g>
			<polygon points="-3169.83,-240.74 -3165.83,-238.74 -3165.83,-258.74 -3169.83,-260.74 			"/>
		</g>
		<g>
			<polygon points="-3179.87,-219.74 -3175.87,-217.74 -3175.87,-237.74 -3179.87,-239.74 			"/>
		</g>
		<circle class="st1" cx="-3154.83" cy="-248.74" r="6"/>
		<path class="st1" d="M-3145.56-233.48l-4.59,7.95c-0.77,1.33,0.19,3,1.73,3h9.18c1.54,0,2.5-1.67,1.73-3l-4.59-7.95
			C-3142.86-234.81-3144.79-234.81-3145.56-233.48z"/>
		<path class="st1" d="M-3160.83-233.74h-8c-1.1,0-2,0.9-2,2v8c0,1.1,0.9,2,2,2h8c1.1,0,2-0.9,2-2v-8
			C-3158.83-232.85-3159.72-233.74-3160.83-233.74z"/>
	</g>
	<g>
		<path d="M-2668.37-81.32c-4.01,0-7.27-3.26-7.27-7.27v-24.37c0-1.7,1.38-3.08,3.08-3.08h8.39c1.7,0,3.08,1.38,3.08,3.08v24.37
			C-2661.1-84.58-2664.36-81.32-2668.37-81.32z"/>
		<path class="st1" d="M-2664.17-115.54c1.42,0,2.58,1.15,2.58,2.58v24.37c0,3.74-3.03,6.77-6.77,6.77c-3.74,0-6.77-3.03-6.77-6.77
			v-24.37c0-1.42,1.15-2.58,2.58-2.58H-2664.17 M-2664.17-116.54h-8.39c-1.97,0-3.58,1.6-3.58,3.58v24.37
			c0,4.29,3.49,7.77,7.77,7.77c4.29,0,7.77-3.49,7.77-7.77v-24.37C-2660.6-114.93-2662.2-116.54-2664.17-116.54L-2664.17-116.54z"/>
	</g>
	<path class="st1" d="M-2667.5-110.49l2.12,3.67c0.38,0.67-0.1,1.5-0.87,1.5h-4.23c-0.77,0-1.25-0.83-0.87-1.5l2.12-3.67
		C-2668.85-111.16-2667.89-111.16-2667.5-110.49z"/>
	<circle class="st1" cx="-2668.37" cy="-88.8" r="1.39"/>
	<circle class="st1" cx="-2682.64" cy="-102.99" r="2.97"/>
	<path class="st1" d="M-2689.7-91.4h3.2c0.55,0,1,0.45,1,1v3.2c0,0.55-0.45,1-1,1h-3.2c-0.55,0-1-0.45-1-1v-3.2
		C-2690.7-90.95-2690.26-91.4-2689.7-91.4z"/>
	<g>
		<path d="M-2696-18.73v-8.39c0-1.42,1.15-2.58,2.58-2.58h24.37c3.74,0,6.77,3.03,6.77,6.77v0c0,3.74-3.03,6.77-6.77,6.77h-24.37
			C-2694.84-16.15-2696-17.31-2696-18.73z"/>
	</g>
	<g>
		<path d="M-2669.11-15.5c-1.94,0-3.77-0.76-5.14-2.13l-17.23-17.23c-0.58-0.58-0.9-1.35-0.9-2.18s0.32-1.59,0.9-2.18l5.93-5.93
			c0.58-0.58,1.35-0.9,2.18-0.9c0.82,0,1.59,0.32,2.17,0.9l17.23,17.23c1.37,1.37,2.13,3.2,2.13,5.14s-0.76,3.77-2.13,5.14
			C-2665.34-16.26-2667.17-15.5-2669.11-15.5z"/>
		<path class="st1" d="M-2683.38-45.55c0.66,0,1.32,0.25,1.82,0.75l17.23,17.23c2.65,2.65,2.65,6.93,0,9.58v0
			c-1.32,1.32-3.06,1.98-4.79,1.98c-1.73,0-3.47-0.66-4.79-1.98l-17.23-17.23c-1.01-1.01-1.01-2.64,0-3.64l5.93-5.93
			C-2684.7-45.3-2684.04-45.55-2683.38-45.55 M-2683.38-46.55c-0.96,0-1.85,0.37-2.53,1.05l-5.93,5.93
			c-0.68,0.68-1.05,1.57-1.05,2.53c0,0.96,0.37,1.85,1.05,2.53l17.23,17.23c1.47,1.47,3.42,2.28,5.5,2.28c2.08,0,4.03-0.81,5.5-2.28
			c1.47-1.47,2.28-3.42,2.28-5.5c0-2.08-0.81-4.03-2.28-5.5l-17.23-17.23C-2681.52-46.18-2682.42-46.55-2683.38-46.55
			L-2683.38-46.55z"/>
	</g>
	<g>
		<path d="M-2669.26-15.44c-4.01,0-7.27-3.26-7.27-7.27v-24.37c0-1.7,1.38-3.08,3.08-3.08h8.39c1.7,0,3.08,1.38,3.08,3.08v24.37
			C-2661.99-18.71-2665.25-15.44-2669.26-15.44z"/>
		<path class="st1" d="M-2665.07-49.66c1.42,0,2.58,1.15,2.58,2.58v24.37c0,3.74-3.03,6.77-6.77,6.77c-3.74,0-6.77-3.03-6.77-6.77
			v-24.37c0-1.42,1.15-2.58,2.58-2.58H-2665.07 M-2665.07-50.66h-8.39c-1.97,0-3.58,1.6-3.58,3.58v24.37c0,4.29,3.49,7.77,7.77,7.77
			c4.29,0,7.77-3.49,7.77-7.77v-24.37C-2661.49-49.06-2663.09-50.66-2665.07-50.66L-2665.07-50.66z"/>
	</g>
	<path class="st1" d="M-2668.4-44.62l2.12,3.67c0.38,0.67-0.1,1.5-0.87,1.5h-4.23c-0.77,0-1.25-0.83-0.87-1.5l2.12-3.67
		C-2669.74-45.28-2668.78-45.28-2668.4-44.62z"/>
	<circle class="st1" cx="-2669.26" cy="-22.93" r="1.39"/>
	<circle class="st1" cx="-2683.53" cy="-37.11" r="2.97"/>
	<path class="st1" d="M-2690.6-25.52h3.2c0.55,0,1,0.45,1,1v3.2c0,0.55-0.45,1-1,1h-3.2c-0.55,0-1-0.45-1-1v-3.2
		C-2691.6-25.08-2691.15-25.52-2690.6-25.52z"/>
	<path class="st3" d="M-3228-257.87c0,3.53,0,7.07,0,10.6"/>
	<path class="st3" d="M-3234.42-178.98c-0.48,0.17-1.07-0.06-1.31-0.51c2.91-0.38,5.86-0.49,8.79-0.32c0.4,0.02,0.87,0.1,1.03,0.47
		c0.22,0.49-0.32,0.97-0.78,1.26c-1.34,0.85-2.58,1.88-3.65,3.05c-0.58,0.63-1.13,1.58-0.62,2.26c0.28,0.39,0.8,0.51,1.27,0.6
		c3.1,0.58,6.28,0.77,9.42,0.57"/>
	<path class="st3" d="M-3231.52-118.26c1.89-0.49,3.85-0.7,5.79-0.62c0.3,0.01,0.64,0.05,0.83,0.29c0.14,0.17,0.16,0.41,0.13,0.63
		c-0.26,1.78-3.26,2.57-2.83,4.31c0.2,0.82,1.08,1.23,1.72,1.78c1.37,1.18,1.69,3.26,1.17,4.99c-0.52,1.73-1.73,3.16-3.04,4.41
		c-0.49,0.47-1.02,0.93-1.67,1.14c-0.65,0.21-1.44,0.1-1.87-0.42"/>
	<path class="st3" d="M-3227.32-40.44c0.28,0.21,0.07,0.65-0.16,0.92c-1.78,2.08-3.55,4.15-5.33,6.23c3.22,0.02,6.43,0.27,9.61,0.75
		"/>
	<path class="st3" d="M-3227.82-37.66c-0.12,4.42-0.24,8.83-0.36,13.25"/>
	<path class="st3" d="M-2983.62-251.19c-0.25,1.59-1.62,2.71-2.54,4.03c-0.82,1.17-1.3,2.58-1.38,4c-0.02,0.29-0.01,0.61,0.18,0.84
		c0.16,0.2,0.42,0.27,0.67,0.34c0.86,0.24,1.75,0.49,2.63,0.35s1.75-0.77,1.86-1.66c0.1-0.79-0.5-1.61-1.29-1.74
		c-0.79-0.13-1.62,0.44-1.78,1.22"/>
	<path class="st3" d="M-2990.54-182.79c3.51,0.09,7.02,0.18,10.53,0.27c0.24,0.01,0.51,0.02,0.67,0.2c0.19,0.2,0.16,0.51,0.12,0.77
		c-0.61,3.49-3.34,6.65-2.72,10.14"/>
	<path class="st3" d="M-2987.22-177.29c1.5-0.69,3.09-1.19,4.71-1.47"/>
	<path class="st3" d="M-2983.15-112.42c-1.32,0.05-2.7,0.12-3.86,0.76c-1.16,0.64-2.03,2.02-1.64,3.28c0.27,0.88,1.08,1.5,1.92,1.89
		c1.3,0.59,2.87,0.72,4.12,0.04c1.25-0.68,2-2.32,1.43-3.62c-0.45-1.03-1.55-1.61-2.64-1.89c-1.77-0.46-4.17,0.12-4.45,1.93"/>
	<path class="st3" d="M-2983.17-104.37c-1.06-0.52-2.17-1.05-3.35-1.01c-1.18,0.03-2.43,0.82-2.55,1.99
		c-0.16,1.58,1.6,2.61,3.12,3.04c1.81,0.51,4.21,0.54,5.06-1.14c0.54-1.08,0.09-2.48-0.83-3.26c-0.92-0.78-2.21-1.02-3.41-0.92"/>
	<g>
		<path d="M-3163.57-41.7h-32c-1.66,0-3-1.34-3-3v-4c0-1.66,1.34-3,3-3h32c1.66,0,3,1.34,3,3v4
			C-3160.57-43.04-3161.92-41.7-3163.57-41.7z"/>
	</g>
	<g>
		<path d="M-3163.57-29.7h-22c-1.66,0-3-1.34-3-3v-4c0-1.66,1.34-3,3-3h22c1.66,0,3,1.34,3,3v4
			C-3160.57-31.04-3161.92-29.7-3163.57-29.7z"/>
	</g>
	<g>
		<path d="M-3163.57-17.7h-27c-1.66,0-3-1.34-3-3v-4c0-1.66,1.34-3,3-3h27c1.66,0,3,1.34,3,3v4
			C-3160.57-19.04-3161.92-17.7-3163.57-17.7z"/>
	</g>
	<circle class="st1" cx="-3192.57" cy="-46.84" r="2.92"/>
	<path class="st1" d="M-3185.57-25.2h-4c-0.28,0-0.5,0.22-0.5,0.5v4c0,0.28,0.22,0.5,0.5,0.5h4c0.28,0,0.5-0.22,0.5-0.5v-4
		C-3185.07-24.97-3185.3-25.2-3185.57-25.2z"/>
	<path class="st1" d="M-3182.83-36.93l-2.29,3.96c-0.19,0.33,0.05,0.75,0.43,0.75h4.58c0.39,0,0.63-0.42,0.43-0.75l-2.29-3.96
		C-3182.15-37.26-3182.63-37.26-3182.83-36.93z"/>
	<text transform="matrix(1 0 0 1 -3155.0742 35.6116)"><tspan x="0" y="0" style="font-family:'FatFrank-Heavy'; font-size:23.0251px;">de</tspan><tspan x="0" y="19.07" style="font-family:'FatFrank-Heavy'; font-size:23.0251px;">clutter</tspan></text>
	<g>
		<path d="M-3163.57,30.83h-32c-1.66,0-3-1.34-3-3v-4c0-1.66,1.34-3,3-3h32c1.66,0,3,1.34,3,3v4
			C-3160.57,29.49-3161.92,30.83-3163.57,30.83z"/>
	</g>
	<g>
		<path d="M-3163.57,42.83h-22c-1.66,0-3-1.34-3-3v-4c0-1.66,1.34-3,3-3h22c1.66,0,3,1.34,3,3v4
			C-3160.57,41.49-3161.92,42.83-3163.57,42.83z"/>
	</g>
	<g>
		<path d="M-3163.57,54.83h-27c-1.66,0-3-1.34-3-3v-4c0-1.66,1.34-3,3-3h27c1.66,0,3,1.34,3,3v4
			C-3160.57,53.49-3161.92,54.83-3163.57,54.83z"/>
	</g>
	<circle class="st1" cx="-3167.51" cy="25.69" r="2.92"/>
	<path class="st1" d="M-3165.51,47.33h-4c-0.28,0-0.5,0.22-0.5,0.5v4c0,0.28,0.22,0.5,0.5,0.5h4c0.28,0,0.5-0.22,0.5-0.5v-4
		C-3165.01,47.56-3165.24,47.33-3165.51,47.33z"/>
	<path class="st1" d="M-3167.95,35.6l-2.29,3.96c-0.19,0.33,0.05,0.75,0.43,0.75h4.58c0.39,0,0.63-0.42,0.43-0.75l-2.29-3.96
		C-3167.27,35.27-3167.75,35.27-3167.95,35.6z"/>
	<g>
		<g>
			<path class="st4" d="M-2166.3,267.36h-159.48c-5.67,0-10.26-4.59-10.26-10.26v-24.48c0-5.67,4.59-10.26,10.26-10.26h159.48
				c5.67,0,10.26,4.59,10.26,10.26v24.48C-2156.04,262.76-2160.64,267.36-2166.3,267.36z"/>
		</g>
		<g>
			<path class="st4" d="M-2166.39,323.61h-114.3c-5.72,0-10.35-4.63-10.35-10.35v-24.3c0-5.72,4.63-10.35,10.35-10.35h114.3
				c5.72,0,10.35,4.63,10.35,10.35v24.3C-2156.04,318.97-2160.68,323.61-2166.39,323.61z"/>
		</g>
		<g>
			<path class="st4" d="M-2166.34,379.86h-136.9c-5.69,0-10.3-4.61-10.3-10.3v-24.4c0-5.69,4.61-10.3,10.3-10.3h136.9
				c5.69,0,10.3,4.61,10.3,10.3v24.4C-2156.04,375.24-2160.65,379.86-2166.34,379.86z"/>
		</g>
		<circle class="st5" cx="-2189.79" cy="244.23" r="12.5"/>
		<path class="st6" d="M-2181.04,346.11h-17.5c-1.38,0-2.5,1.12-2.5,2.5v17.5c0,1.38,1.12,2.5,2.5,2.5h17.5c1.38,0,2.5-1.12,2.5-2.5
			v-17.5C-2178.54,347.22-2179.66,346.11-2181.04,346.11z"/>
		<path class="st7" d="M-2192,291.25l-10.05,17.41c-0.98,1.7,0.25,3.82,2.21,3.82h20.1c1.96,0,3.19-2.12,2.21-3.82l-10.05-17.41
			C-2188.57,289.56-2191.02,289.56-2192,291.25z"/>
		<g>
			<g>
				<path class="st8" d="M-2085.38,374.17c0.29,0.49,0,1.17-0.59,1.66c-5.29,3.33-12.53,5.58-18.11,5.58
					c-17.72,0-29.47-11.36-29.47-28.39s11.75-28.39,29.47-28.39c5.58,0,12.82,2.25,18.11,5.58c0.59,0.49,0.88,1.17,0.59,1.66
					l-5.68,11.94c-0.39,0.78-1.08,1.08-1.76,0.59c-2.45-1.76-6.17-2.94-9.4-2.94c-7.15,0-11.84,4.6-11.84,11.55
					s4.7,11.55,11.84,11.55c3.23,0,6.95-1.17,9.4-2.94c0.68-0.49,1.37-0.2,1.76,0.59L-2085.38,374.17z"/>
				<path class="st8" d="M-2059.15,308.88c0.78,0,1.47,0.69,1.47,1.37v68.13c0,0.78-0.69,1.47-1.47,1.47h-17.23
					c-0.78,0-1.47-0.69-1.47-1.47v-68.13c0-0.69,0.68-1.37,1.47-1.37H-2059.15z"/>
				<path class="st8" d="M-1999.24,326.01c0.78,0,1.47,0.69,1.47,1.47v51c0,0.69-0.69,1.37-1.47,1.37h-11.06
					c-0.78,0-1.27-0.69-1.57-1.47l-1.47-3.52c-3.52,3.92-9.3,6.46-15.66,6.46c-12.73,0-20.26-8.13-20.26-21.44v-32.4
					c0-0.78,0.68-1.47,1.47-1.47h17.23c0.78,0,1.47,0.69,1.47,1.47v29.96c0,3.33,2.06,5.58,5.19,5.58c3.82,0,5.97-3.13,5.97-3.13
					v-32.4c0-0.78,0.68-1.47,1.47-1.47H-1999.24z"/>
				<path class="st8" d="M-1956.86,326.01c0.88,0,1.47,0.59,1.47,1.37l-1.08,9.5c-0.1,0.78-0.69,1.47-1.47,1.47h-6.27v40.04
					c0,0.78-0.68,1.47-1.47,1.47h-17.23c-0.78,0-1.47-0.69-1.47-1.47v-40.04h-5.58c-0.69,0-1.37-0.59-1.37-1.37v-9.5
					c0-0.88,0.68-1.47,1.37-1.47h5.58v-10.67c0-0.69,0.69-1.27,1.47-1.37l17.23-1.66c0.78-0.1,1.47,0.69,1.47,1.37v12.33H-1956.86z"
					/>
				<path class="st8" d="M-1917.02,326.01c0.88,0,1.47,0.59,1.47,1.37l-1.08,9.5c-0.1,0.78-0.69,1.47-1.47,1.47h-6.27v40.04
					c0,0.78-0.68,1.47-1.47,1.47h-17.23c-0.78,0-1.47-0.69-1.47-1.47v-40.04h-5.58c-0.69,0-1.37-0.59-1.37-1.37v-9.5
					c0-0.88,0.68-1.47,1.37-1.47h5.58v-10.67c0-0.69,0.69-1.27,1.47-1.37l17.23-1.66c0.78-0.1,1.47,0.69,1.47,1.37v12.33H-1917.02z"
					/>
				<path class="st8" d="M-1862.79,374.37c0.2,0.69,0,1.08-0.68,1.47c-5.19,3.43-12.73,5.48-20.26,5.48
					c-17.33,0-28.88-11.36-28.88-28.29c0-17.03,11.36-28.39,28.39-28.39c16.25,0,25.84,10.47,25.84,28.29c0,1.47-0.1,2.94-0.39,4.41
					c-0.1,0.78-0.59,1.17-1.47,1.17h-31.42c0,0,0,6.17,8.22,6.17c4.99,0,10.57-1.17,14.98-3.23c0.69-0.29,1.27,0.1,1.47,0.78
					L-1862.79,374.37z M-1877.86,348.23c0-4.31-2.64-7.15-6.56-7.15c-4.41,0-7.34,2.84-7.34,7.15H-1877.86z"/>
				<path class="st8" d="M-1819.91,326.01c0.78,0,1.37,0.59,1.37,1.37v12.73c0,0.78-0.59,1.37-1.37,1.37h-2.54
					c-3.72,0-7.05,1.66-8.32,4.11v32.79c0,0.78-0.69,1.47-1.47,1.47h-17.23c-0.78,0-1.47-0.69-1.47-1.47v-50.9
					c0-0.69,0.68-1.37,1.47-1.37h11.06c0.78,0,1.27,0.69,1.57,1.47l1.47,4.31c2.94-3.62,7.73-5.87,12.92-5.87H-1819.91z"/>
			</g>
			<g>
				<path class="st8" d="M-2077.06,222.36c0.78,0,1.47,0.69,1.47,1.37v68.13c0,0.78-0.69,1.47-1.47,1.47h-11.06
					c-0.69,0-1.17-0.59-1.57-1.47l-1.47-3.52c-3.72,3.92-9.99,6.46-16.54,6.46c-15.47,0-25.84-11.36-25.84-28.39
					c0-16.94,10.38-28.29,25.84-28.29c4.6,0,9.01,1.37,11.94,3.72v-18.11c0-0.69,0.68-1.37,1.47-1.37H-2077.06z M-2095.76,260.34
					c-1.17-3.23-4.31-5.38-7.73-5.38c-5.38,0-9.01,4.5-9.01,11.36c0,7.05,3.62,11.75,9.01,11.75c3.43,0,6.56-2.15,7.73-5.38V260.34z
					"/>
				<path class="st8" d="M-2018.33,287.85c0.2,0.69,0,1.08-0.68,1.47c-5.19,3.43-12.73,5.48-20.26,5.48
					c-17.33,0-28.88-11.36-28.88-28.29c0-17.03,11.36-28.39,28.39-28.39c16.25,0,25.84,10.47,25.84,28.29c0,1.47-0.1,2.94-0.39,4.41
					c-0.1,0.78-0.59,1.17-1.47,1.17h-31.42c0,0,0,6.17,8.22,6.17c4.99,0,10.57-1.17,14.98-3.23c0.69-0.29,1.27,0.1,1.47,0.78
					L-2018.33,287.85z M-2033.4,261.71c0-4.31-2.64-7.15-6.56-7.15c-4.41,0-7.34,2.84-7.34,7.15H-2033.4z"/>
			</g>
		</g>
	</g>
	<g>
		<text transform="matrix(1 0 0 1 -470.1333 286.8589)"><tspan x="0" y="0" class="st8" style="font-family:'FatFrank-Heavy'; font-size:90px; letter-spacing:1;">de</tspan><tspan x="0" y="85.8" class="st8" style="font-family:'FatFrank-Heavy'; font-size:90px; letter-spacing:1;">clutter</tspan></text>
		<g>
			<path class="st0" d="M-504.85,267.36h-150.06c-5.51,0-9.97-4.46-9.97-9.97v-25.06c0-5.51,4.46-9.97,9.97-9.97h150.06
				c5.51,0,9.97,4.46,9.97,9.97v25.06C-494.88,262.89-499.35,267.36-504.85,267.36z"/>
		</g>
		<g>
			<path class="st0" d="M-504.23,321.36h-91.31c-5.16,0-9.34-4.18-9.34-9.34V285.7c0-5.16,4.18-9.34,9.34-9.34h91.31
				c5.16,0,9.34,4.18,9.34,9.34v26.31C-494.88,317.17-499.07,321.36-504.23,321.36z"/>
		</g>
		<g>
			<path class="st0" d="M-504.59,375.36h-120.58c-5.36,0-9.71-4.35-9.71-9.71v-25.58c0-5.36,4.35-9.71,9.71-9.71h120.58
				c5.36,0,9.71,4.35,9.71,9.71v25.58C-494.88,371.01-499.23,375.36-504.59,375.36z"/>
		</g>
		<circle class="st9" cx="-526.11" cy="244.23" r="13.12"/>
		<path class="st6" d="M-517.11,341.61h-18c-1.24,0-2.25,1.01-2.25,2.25v18c0,1.24,1.01,2.25,2.25,2.25h18
			c1.24,0,2.25-1.01,2.25-2.25v-18C-514.86,342.61-515.87,341.61-517.11,341.61z"/>
		<path class="st7" d="M-528.06,288.81l-10.3,17.83c-0.87,1.5,0.22,3.37,1.95,3.37h20.59c1.73,0,2.81-1.87,1.95-3.37l-10.3-17.83
			C-525.03,287.31-527.2,287.31-528.06,288.81z"/>
	</g>
	<g>
		<text transform="matrix(1 0 0 1 -1290.1335 284.6866)"><tspan x="0" y="0" class="st0" style="font-family:'FatFrank-Heavy'; font-size:90px; letter-spacing:1;">de</tspan><tspan x="0" y="85.8" class="st0" style="font-family:'FatFrank-Heavy'; font-size:90px; letter-spacing:1;">clutter</tspan></text>
		<g>
			<path class="st0" d="M-1324.85,265.18h-150.06c-5.51,0-9.97-4.46-9.97-9.97v-25.06c0-5.51,4.46-9.97,9.97-9.97h150.06
				c5.51,0,9.97,4.46,9.97,9.97v25.06C-1314.88,260.72-1319.35,265.18-1324.85,265.18z"/>
		</g>
		<g>
			<path class="st0" d="M-1324.23,319.18h-91.31c-5.16,0-9.34-4.18-9.34-9.34v-26.31c0-5.16,4.18-9.34,9.34-9.34h91.31
				c5.16,0,9.34,4.18,9.34,9.34v26.31C-1314.88,315-1319.07,319.18-1324.23,319.18z"/>
		</g>
		<g>
			<path class="st0" d="M-1324.59,373.18h-120.58c-5.36,0-9.71-4.35-9.71-9.71v-25.58c0-5.36,4.35-9.71,9.71-9.71h120.58
				c5.36,0,9.71,4.35,9.71,9.71v25.58C-1314.88,368.84-1319.23,373.18-1324.59,373.18z"/>
		</g>
		<circle class="st9" cx="-1346.11" cy="242.05" r="13.12"/>
		<path class="st6" d="M-1337.11,339.43h-18c-1.24,0-2.25,1.01-2.25,2.25v18c0,1.24,1.01,2.25,2.25,2.25h18
			c1.24,0,2.25-1.01,2.25-2.25v-18C-1334.86,340.44-1335.87,339.43-1337.11,339.43z"/>
		<path class="st7" d="M-1348.06,286.64l-10.3,17.83c-0.87,1.5,0.22,3.37,1.95,3.37h20.59c1.73,0,2.81-1.87,1.95-3.37l-10.3-17.83
			C-1345.03,285.14-1347.2,285.14-1348.06,286.64z"/>
	</g>
	<path class="st3" d="M-2744.6-106.9c0.38,4.41,0.45,8.84,0.22,13.26"/>
	<path class="st3" d="M-2732.92-105.62c-1.28,1.37-2.46,2.96-2.7,4.81c-0.24,1.86,0.79,3.98,2.62,4.39
		c2.06,0.46,3.95-1.34,4.91-3.21c0.36-0.71,0.67-1.47,0.69-2.27c0.05-1.7-1.18-3.23-2.68-4.01s-3.24-0.98-4.93-1.12
		c-0.02,2.26-0.03,4.51-0.05,6.77"/>
	<path class="st3" d="M-3222.18,24c-2.49-0.21-5.02,0.14-7.35,1.02c-0.3,0.11-0.62,0.25-0.78,0.52c-0.15,0.24-0.15,0.55-0.15,0.84
		c0.04,2.82,0.07,5.64,0.11,8.46c0.85-0.87,1.87-1.58,2.98-2.06c0.7-0.3,1.45-0.52,2.21-0.51c2.68,0.03,4.6,3.17,3.95,5.78
		c-0.65,2.6-3.21,4.4-5.86,4.84c-2.65,0.43-5.35-0.26-7.86-1.21"/>
	<path class="st3" d="M-2983.22-47.44c-1.53-0.09-3.17,0.37-4.14,1.55c-0.97,1.18-1.03,3.14,0.12,4.15c1.21,1.06,3.26,0.64,4.3-0.6
		c1.04-1.23,1.22-3,0.92-4.58c0.12,5.18,0.25,10.36,0.37,15.54"/>
	<path class="st3" d="M-2741.03-35.51c0.18,2.08,0.54,4.13,1.07,6.15"/>
	<path class="st3" d="M-2735.04-36.7c0.59,2.9,0.77,5.89,0.53,8.84"/>
	<rect x="-2336.04" y="267.36" class="st7" width="22.5" height="11.25"/>
	<rect x="-2336.04" y="323.61" class="st7" width="22.5" height="11.25"/>
	<g>
		<rect x="-2201.04" y="177.36" class="st7" width="22.5" height="22.5"/>
		<rect x="-2178.54" y="199.86" class="st7" width="22.5" height="22.5"/>
		<rect x="-2156.04" y="177.36" class="st7" width="22.5" height="22.5"/>
		<rect x="-2246.04" y="199.86" class="st7" width="45" height="22.5"/>
		<rect x="-2291.04" y="177.36" class="st7" width="45" height="22.5"/>
		<rect x="-2336.04" y="199.86" class="st7" width="45" height="22.5"/>
	</g>
	<g>
		
			<rect x="-1829.79" y="346.16" transform="matrix(6.123234e-17 -1 1 6.123234e-17 -2164.7009 -1449.885)" class="st7" width="45" height="22.5"/>
		
			<rect x="-1807.29" y="301.16" transform="matrix(6.123234e-17 -1 1 6.123234e-17 -2097.2009 -1472.385)" class="st7" width="45" height="22.5"/>
		
			<rect x="-1829.79" y="256.16" transform="matrix(6.123234e-17 -1 1 6.123234e-17 -2074.7009 -1539.885)" class="st7" width="45" height="22.5"/>
		
			<rect x="-1796.04" y="222.41" transform="matrix(6.123234e-17 -1 1 6.123234e-17 -2018.451 -1551.135)" class="st7" width="22.5" height="22.5"/>
	</g>
	
		<rect x="-2392.29" y="346.16" transform="matrix(6.123234e-17 -1 1 6.123234e-17 -2727.2009 -2012.385)" class="st7" width="45" height="22.5"/>
	
		<rect x="-2369.79" y="301.16" transform="matrix(6.123234e-17 -1 1 6.123234e-17 -2659.7009 -2034.885)" class="st7" width="45" height="22.5"/>
	
		<rect x="-2369.79" y="391.1" transform="matrix(6.123234e-17 -1 1 6.123234e-17 -2749.6416 -1944.9446)" class="st7" width="45" height="22.5"/>
	
		<rect x="-2392.29" y="256.16" transform="matrix(6.123234e-17 -1 1 6.123234e-17 -2637.2009 -2102.385)" class="st7" width="45" height="22.5"/>
	
		<rect x="-2358.54" y="222.41" transform="matrix(6.123234e-17 -1 1 6.123234e-17 -2580.9509 -2113.635)" class="st7" width="22.5" height="22.5"/>
	<g>
		<rect x="-2133.54" y="379.85" class="st7" width="45" height="22.5"/>
		<rect x="-2088.54" y="402.35" class="st7" width="45" height="22.5"/>
		<rect x="-2043.54" y="379.85" class="st7" width="45" height="22.5"/>
		<rect x="-1998.54" y="402.35" class="st7" width="45" height="22.5"/>
		<rect x="-1953.54" y="379.85" class="st7" width="45" height="22.5"/>
		<rect x="-1908.54" y="402.35" class="st7" width="45" height="22.5"/>
		<rect x="-1818.54" y="402.35" class="st7" width="45" height="22.5"/>
		<rect x="-1863.54" y="379.85" class="st7" width="45" height="22.5"/>
	</g>
	<g>
		
			<rect x="-1863.54" y="199.86" transform="matrix(-1 4.490884e-11 -4.490884e-11 -1 -3682.0862 422.2104)" class="st7" width="45" height="22.5"/>
		
			<rect x="-1908.54" y="177.36" transform="matrix(-1 4.488842e-11 -4.488842e-11 -1 -3772.0862 377.2104)" class="st7" width="45" height="22.5"/>
		
			<rect x="-1818.54" y="177.36" transform="matrix(-1 4.488842e-11 -4.488842e-11 -1 -3592.0862 377.2104)" class="st7" width="45" height="22.5"/>
		
			<rect x="-1953.54" y="199.86" transform="matrix(-1 4.488842e-11 -4.488842e-11 -1 -3862.0862 422.2104)" class="st7" width="45" height="22.5"/>
		
			<rect x="-1998.54" y="177.36" transform="matrix(-1 4.490884e-11 -4.490884e-11 -1 -3952.0862 377.2104)" class="st7" width="45" height="22.5"/>
		
			<rect x="-2043.54" y="199.86" transform="matrix(-1 4.488842e-11 -4.488842e-11 -1 -4042.0862 422.2104)" class="st7" width="45" height="22.5"/>
		
			<rect x="-2088.54" y="177.36" transform="matrix(-1 4.490884e-11 -4.490884e-11 -1 -4132.0859 377.2104)" class="st7" width="45" height="22.5"/>
		
			<rect x="-2133.54" y="199.86" transform="matrix(-1 4.488842e-11 -4.488842e-11 -1 -4222.0859 422.2104)" class="st7" width="45" height="22.5"/>
	</g>
	<rect x="-2381.04" y="177.36" class="st10" width="607.5" height="247.5"/>
	<g>
		<text transform="matrix(1 0 0 1 -2135.2354 131.4415)" class="st0" style="font-family:'FatFrank-Heavy'; font-size:30px;">14x</text>
	</g>
	<g>
		<text transform="matrix(1 0 0 1 -2581.3127 323.6049)" class="st0" style="font-family:'FatFrank-Heavy'; font-size:30px;">5.5x</text>
	</g>
	<g>
		<g>
			<g>
				<path class="st4" d="M305.41,128H78.59C70.53,128,64,121.47,64,113.41V78.59C64,70.53,70.53,64,78.59,64h226.82
					c8.06,0,14.59,6.53,14.59,14.59v34.82C320,121.47,313.47,128,305.41,128z"/>
			</g>
			<g>
				<path class="st4" d="M305.28,208H142.72c-8.13,0-14.72-6.59-14.72-14.72v-34.56c0-8.13,6.59-14.72,14.72-14.72h162.56
					c8.13,0,14.72,6.59,14.72,14.72v34.56C320,201.41,313.41,208,305.28,208z"/>
			</g>
			<g>
				<path class="st4" d="M305.35,288H110.65c-8.09,0-14.65-6.56-14.65-14.65v-34.71c0-8.09,6.56-14.65,14.65-14.65h194.71
					c8.09,0,14.65,6.56,14.65,14.65v34.71C320,281.44,313.44,288,305.35,288z"/>
			</g>
			<circle class="st11" cx="272" cy="95.11" r="17.78"/>
			<path class="st6" d="M284.44,240h-24.89c-1.96,0-3.56,1.59-3.56,3.56v24.89c0,1.96,1.59,3.56,3.56,3.56h24.89
				c1.96,0,3.56-1.59,3.56-3.56v-24.89C288,241.59,286.41,240,284.44,240z"/>
			<path class="st7" d="M268.86,161.99l-14.29,24.75c-1.39,2.42,0.35,5.43,3.14,5.43h28.58c2.79,0,4.53-3.02,3.14-5.43l-14.29-24.75
				C273.74,159.57,270.26,159.57,268.86,161.99z"/>
			<g>
				<g>
					<path class="st8" d="M420.5,279.92c0.42,0.7,0,1.67-0.84,2.37c-7.52,4.73-17.82,7.94-25.76,7.94
						c-25.2,0-41.91-16.15-41.91-40.38s16.71-40.38,41.91-40.38c7.94,0,18.24,3.2,25.76,7.94c0.84,0.7,1.25,1.67,0.84,2.37
						l-8.08,16.99c-0.56,1.11-1.53,1.53-2.51,0.84c-3.48-2.51-8.77-4.18-13.37-4.18c-10.16,0-16.85,6.54-16.85,16.43
						c0,9.89,6.68,16.43,16.85,16.43c4.59,0,9.89-1.67,13.37-4.18c0.97-0.7,1.95-0.28,2.51,0.84L420.5,279.92z"/>
					<path class="st8" d="M457.81,187.05c1.11,0,2.09,0.97,2.09,1.95v96.9c0,1.11-0.98,2.09-2.09,2.09H433.3
						c-1.11,0-2.09-0.97-2.09-2.09V189c0-0.97,0.97-1.95,2.09-1.95H457.81z"/>
					<path class="st8" d="M543.01,211.42c1.11,0,2.09,0.97,2.09,2.09v72.54c0,0.97-0.98,1.95-2.09,1.95h-15.73
						c-1.11,0-1.81-0.97-2.23-2.09l-2.09-5.01c-5.01,5.57-13.23,9.19-22.28,9.19c-18.1,0-28.82-11.56-28.82-30.49V213.5
						c0-1.11,0.97-2.09,2.09-2.09h24.5c1.11,0,2.09,0.97,2.09,2.09v42.6c0,4.73,2.92,7.94,7.38,7.94c5.43,0,8.49-4.46,8.49-4.46
						V213.5c0-1.11,0.97-2.09,2.09-2.09H543.01z"/>
					<path class="st8" d="M603.29,211.42c1.25,0,2.09,0.84,2.09,1.95l-1.53,13.5c-0.14,1.11-0.98,2.09-2.09,2.09h-8.91v56.94
						c0,1.11-0.97,2.09-2.09,2.09h-24.5c-1.11,0-2.09-0.97-2.09-2.09v-56.94h-7.94c-0.98,0-1.95-0.84-1.95-1.95V213.5
						c0-1.25,0.97-2.09,1.95-2.09h7.94v-15.18c0-0.97,0.98-1.81,2.09-1.95l24.5-2.37c1.11-0.14,2.09,0.97,2.09,1.95v17.54H603.29z"
						/>
					<path class="st8" d="M659.95,211.42c1.25,0,2.09,0.84,2.09,1.95l-1.53,13.5c-0.14,1.11-0.98,2.09-2.09,2.09h-8.91v56.94
						c0,1.11-0.97,2.09-2.09,2.09h-24.51c-1.11,0-2.09-0.97-2.09-2.09v-56.94h-7.94c-0.98,0-1.95-0.84-1.95-1.95V213.5
						c0-1.25,0.97-2.09,1.95-2.09h7.94v-15.18c0-0.97,0.98-1.81,2.09-1.95l24.51-2.37c1.11-0.14,2.09,0.97,2.09,1.95v17.54H659.95z"
						/>
					<path class="st8" d="M737.08,280.19c0.28,0.97,0,1.53-0.97,2.09c-7.38,4.87-18.1,7.8-28.82,7.8
						c-24.64,0-41.07-16.15-41.07-40.24c0-24.23,16.15-40.38,40.38-40.38c23.11,0,36.76,14.9,36.76,40.24
						c0,2.09-0.14,4.18-0.56,6.27c-0.14,1.11-0.84,1.67-2.09,1.67h-44.69c0,0,0,8.77,11.69,8.77c7.1,0,15.04-1.67,21.3-4.59
						c0.98-0.42,1.81,0.14,2.09,1.11L737.08,280.19z M715.64,243.02c0-6.13-3.76-10.16-9.33-10.16c-6.27,0-10.44,4.04-10.44,10.16
						H715.64z"/>
					<path class="st8" d="M798.05,211.42c1.11,0,1.95,0.84,1.95,1.95v18.1c0,1.11-0.84,1.95-1.95,1.95h-3.62
						c-5.29,0-10.02,2.37-11.83,5.85v46.64c0,1.11-0.98,2.09-2.09,2.09H756c-1.11,0-2.09-0.97-2.09-2.09v-72.4
						c0-0.97,0.97-1.95,2.09-1.95h15.73c1.11,0,1.81,0.97,2.23,2.09l2.09,6.13c4.18-5.15,11-8.35,18.38-8.35H798.05z"/>
				</g>
				<g>
					<path class="st8" d="M432.33,64c1.11,0,2.09,0.97,2.09,1.95v96.9c0,1.11-0.98,2.09-2.09,2.09H416.6
						c-0.98,0-1.67-0.84-2.23-2.09l-2.09-5.01c-5.29,5.57-14.2,9.19-23.53,9.19c-22,0-36.76-16.15-36.76-40.38
						c0-24.09,14.76-40.24,36.76-40.24c6.54,0,12.81,1.95,16.99,5.29V65.95c0-0.97,0.97-1.95,2.09-1.95H432.33z M405.74,118.02
						c-1.67-4.59-6.13-7.66-11-7.66c-7.66,0-12.81,6.4-12.81,16.15c0,10.02,5.15,16.71,12.81,16.71c4.87,0,9.33-3.06,11-7.66V118.02
						z"/>
					<path class="st8" d="M515.86,157.14c0.28,0.97,0,1.53-0.97,2.09c-7.38,4.87-18.1,7.8-28.82,7.8
						c-24.64,0-41.07-16.15-41.07-40.24c0-24.23,16.15-40.38,40.38-40.38c23.11,0,36.76,14.9,36.76,40.24
						c0,2.09-0.14,4.18-0.56,6.27c-0.14,1.11-0.84,1.67-2.09,1.67h-44.69c0,0,0,8.77,11.69,8.77c7.1,0,15.04-1.67,21.3-4.59
						c0.98-0.42,1.81,0.14,2.09,1.11L515.86,157.14z M494.42,119.97c0-6.13-3.76-10.16-9.33-10.16c-6.26,0-10.44,4.04-10.44,10.16
						H494.42z"/>
				</g>
			</g>
		</g>
		<rect x="0" class="st10" width="864" height="352"/>
	</g>
</g>
</svg>
